<?xml version="1.0" standalone="no"?>
<!DOCTYPE svg PUBLIC "-//W3C//DTD SVG 20010904//EN"
 "http://www.w3.org/TR/2001/REC-SVG-20010904/DTD/svg10.dtd">
<svg version="1.0" xmlns="http://www.w3.org/2000/svg"
 width="800.000000pt" height="800.000000pt" viewBox="0 0 800.000000 800.000000"
 preserveAspectRatio="xMidYMid meet">
<metadata>
Created by potrace 1.14, written by Peter Selinger 2001-2017
</metadata>
<g transform="translate(0.000000,800.000000) scale(0.100000,-0.100000)"
fill="#000000" stroke="none">
<path d="M1820 7989 c-228 -20 -486 -92 -692 -193 -639 -312 -1056 -923 -1118
-1636 -13 -156 -13 -4164 0 -4320 47 -540 296 -1024 705 -1368 318 -267 704
-426 1125 -462 156 -13 4164 -13 4320 0 337 29 654 137 930 318 521 340 846
886 900 1512 13 156 13 4164 0 4320 -47 540 -296 1024 -705 1368 -318 267
-704 426 -1125 462 -141 12 -4201 11 -4340 -1z m1797 -2016 c-2 -5 -318 -734
-703 -1620 l-698 -1613 -772 0 -773 0 16 37 c118 285 1183 2724 1208 2768 120
216 360 382 613 425 60 10 1115 12 1109 3z m3709 -2 c-3 -5 -319 -731 -701
-1612 -383 -882 -699 -1607 -704 -1612 -4 -4 -351 -6 -772 -5 l-765 3 601
1386 c437 1007 614 1405 649 1458 136 203 359 345 601 380 81 12 1098 14 1091
2z m-2158 -710 c-1 -5 -318 -734 -702 -1620 l-699 -1611 -775 0 c-615 0 -773
3 -769 13 3 6 273 631 601 1387 414 953 611 1396 643 1444 131 198 323 329
563 382 66 14 1144 19 1138 5z"/>
</g>
</svg>
